PathFileType	4	(X/Y/Z)	 s11c0203.trc
DataRate	CameraRate	NumFrames	NumMarkers	Units	OrigDataRate	OrigDataStartFrame	OrigNumFrames
200	200	7	48	mm	200	751	2000
Frame#	Time	racr			lacr			c7			jug			rlel			rdr			llel			ldr			s2			lic			ric			lasi			rasi			rpsi			lpsi			rgt			lgt			rth1			rth2			rth3			rth4			rlfc			rmfc			rsh1			rsh2			rsh3			rsh4			rlmal			rcal			rtoe			rmt5			lth1			lth2			lth4			lth3			llfc			lmfc			llmal			lcal			lmt5			lsh1			lsh2			lsh3			lsh4			ltoe			SBIKE			LBIKE			RBIKE			
		X1	Y1	Z1	X2	Y2	Z2	X3	Y3	Z3	X4	Y4	Z4	X5	Y5	Z5	X6	Y6	Z6	X7	Y7	Z7	X8	Y8	Z8	X9	Y9	Z9	X10	Y10	Z10	X11	Y11	Z11	X12	Y12	Z12	X13	Y13	Z13	X14	Y14	Z14	X15	Y15	Z15	X16	Y16	Z16	X17	Y17	Z17	X18	Y18	Z18	X19	Y19	Z19	X20	Y20	Z20	X21	Y21	Z21	X22	Y22	Z22	X23	Y23	Z23	X24	Y24	Z24	X25	Y25	Z25	X26	Y26	Z26	X27	Y27	Z27	X28	Y28	Z28	X29	Y29	Z29	X30	Y30	Z30	X31	Y31	Z31	X32	Y32	Z32	X33	Y33	Z33	X34	Y34	Z34	X35	Y35	Z35	X36	Y36	Z36	X37	Y37	Z37	X38	Y38	Z38	X39	Y39	Z39	X40	Y40	Z40	X41	Y41	Z41	X42	Y42	Z42	X43	Y43	Z43	X44	Y44	Z44	X45	Y45	Z45	X46	Y46	Z46	X47	Y47	Z47	X48	Y48	Z48	
751	3.7550	491.712972	1346.250897	-48.330754	538.089846	1338.316498	-324.927901	461.426764	1427.249134	-199.243166	446.260475	1243.608294	-195.635640	531.384259	1101.923245	81.075482	752.299300	961.859612	-42.069881	560.050812	1130.534745	-552.751796	785.863214	959.545647	-424.309193	-105.578935	1199.394183	-293.798230	122.772098	1209.684694	-474.310328	82.780611	1234.871132	-68.807716	155.666064	1142.149565	-448.470501	121.116180	1173.139155	-109.154148	-72.679304	1287.310719	-245.952359	-62.844824	1274.578932	-335.093808	51.531839	1113.212581	-50.233697	24.837416	1062.592124	-483.716138	184.617200	1052.084637	-46.685337	273.178079	1041.762364	-51.237743	343.780349	989.720425	-55.929256	285.836081	1074.451065	-64.463131	445.078385	937.300687	-66.845045	457.334434	910.270518	-196.144699	401.890928	779.573406	-52.615071	392.018238	692.854766	-67.669710	342.154267	621.455722	-66.352620	415.904278	686.888317	-99.253291	281.893362	491.535199	-80.583906	214.973360	472.243361	-126.872828	500.389683	443.138251	-129.988828	433.005805	412.566561	-58.853002	122.758902	945.767565	-493.663931	192.894509	896.964180	-488.898971	221.759007	919.949639	-485.756813	230.681618	815.948699	-477.910602	305.627377	706.105581	-447.496472	327.072428	705.016970	-320.724746	26.997303	376.949880	-419.142270	-40.563029	355.073041	-378.700832	132.160476	237.866018	-445.061150	222.677735	612.359426	-464.120642	190.507907	535.205338	-445.659153	121.664645	479.921667	-439.291727	216.511796	519.475158	-421.084390	229.865362	225.511149	-378.713671	-205.348742	950.314056	-264.021744	1.180346	82.330025	-460.962484	-15.481247	81.195561	-62.578758	
752	3.7600	491.352525	1347.346685	-49.585140	537.450418	1339.119167	-325.544794	460.783541	1427.727362	-200.090349	446.023924	1244.223731	-195.536374	531.190641	1103.138685	80.056106	752.166153	962.371568	-41.894222	559.419297	1131.270107	-552.912443	785.766813	959.892806	-425.626959	-106.935524	1198.268480	-294.078276	122.092972	1208.866866	-474.274132	82.817113	1233.086069	-69.044039	155.203734	1141.116654	-448.820850	121.689186	1170.666379	-108.752502	-73.229434	1285.655975	-246.335949	-63.370389	1273.094711	-335.575240	51.631732	1109.708011	-51.363260	25.554607	1061.372019	-483.638871	183.301280	1046.474907	-46.555054	272.601713	1034.520823	-51.627643	342.055875	980.616961	-57.061669	285.995498	1066.713607	-64.675410	442.356215	926.363809	-68.578286	452.775833	899.782086	-199.890842	399.924645	767.548884	-53.568379	391.047051	680.896804	-68.879953	342.784760	608.494631	-67.440075	414.948823	675.194586	-100.972268	284.366222	479.055250	-81.503149	217.429446	458.465998	-127.199923	503.811938	435.817406	-130.054409	436.951617	404.028085	-58.892080	126.095092	946.800289	-493.373778	197.180668	899.397799	-488.334042	225.541954	922.796423	-484.794133	236.438705	818.941847	-477.393987	312.305097	710.650853	-447.320528	332.251833	709.473298	-320.383339	26.692106	388.042027	-419.539567	-41.033149	368.155380	-379.279543	128.358033	246.386973	-445.088228	227.687798	618.627466	-464.026932	193.843824	542.264767	-445.485821	123.819172	488.475708	-439.388627	219.435967	525.905939	-420.847292	225.484731	231.531906	-378.531116	-205.337666	950.289494	-264.132844	1.179144	82.285465	-460.962475	-15.474411	81.172424	-62.589007	
753	3.7650	491.065183	1348.434927	-50.624682	536.667299	1340.270319	-326.728175	460.122263	1428.323717	-201.050142	446.034261	1245.005154	-195.826301	531.128583	1104.293262	78.865731	752.054935	962.796562	-41.857543	558.982632	1131.932022	-552.781322	785.759718	960.034220	-426.990802	-107.683907	1196.867510	-294.410080	121.489696	1207.812917	-474.123079	82.908616	1230.854015	-69.136273	154.819721	1140.080362	-449.006425	122.387421	1168.271586	-108.329055	-73.811620	1284.100578	-246.784990	-63.960704	1271.523093	-335.982469	51.988596	1106.207191	-52.298731	26.365512	1060.228278	-483.431973	183.431940	1040.497537	-47.430384	272.056597	1026.611046	-52.125815	340.294404	971.272027	-58.173121	286.341255	1059.108655	-64.087075	438.876444	914.563336	-69.553595	448.726820	888.266146	-201.021934	397.690910	755.309088	-54.819171	390.407376	668.298156	-70.592049	343.034211	595.359455	-68.866734	413.804137	663.489446	-102.819008	286.569579	466.847118	-82.494364	220.765642	444.550629	-128.574308	506.811814	427.923128	-129.938272	440.454856	394.891228	-58.947864	129.445356	947.986897	-493.031538	201.345639	901.797238	-487.658497	229.235579	925.775811	-483.733302	241.954298	822.001567	-476.825453	318.764153	715.243812	-447.120085	337.088012	713.963726	-319.893717	26.670031	399.222433	-419.558402	-41.562444	381.067926	-379.648202	125.106505	255.392532	-445.047230	232.685861	625.028126	-463.971588	197.227840	549.421060	-445.370570	126.064465	497.002034	-439.319244	222.312782	532.677605	-420.479726	221.530874	238.041982	-377.958006	-205.348752	950.247986	-264.229057	1.182973	82.260748	-460.969028	-15.475994	81.159839	-62.609777	
754	3.7700	490.878752	1349.621227	-51.630575	535.936061	1341.784100	-328.232240	459.507869	1429.056865	-202.236917	446.270790	1245.563798	-196.205718	531.181931	1105.429899	77.377274	751.993101	963.055058	-41.898755	556.736458	1131.914290	-553.761914	785.920765	959.943636	-428.049672	-108.445401	1195.427337	-294.688171	121.134767	1206.962581	-474.095038	83.107171	1228.564167	-69.073695	154.493480	1139.006470	-448.973208	123.114095	1165.750754	-107.811980	-73.004482	1281.606426	-248.157400	-64.482565	1269.834317	-336.214959	52.545888	1102.593379	-53.120682	27.371461	1059.140564	-483.056356	183.391195	1034.727841	-48.058356	271.487236	1018.567358	-52.605800	338.387209	961.679593	-59.344044	286.568989	1051.038879	-64.008884	435.542965	902.962476	-71.210294	446.227981	875.874503	-197.692837	395.272872	742.983796	-56.107350	389.230715	655.955737	-72.310382	342.897935	582.302376	-70.766278	412.371881	651.593943	-104.510912	288.466066	454.844966	-83.282338	222.752004	431.569881	-129.040598	509.306857	419.588647	-129.765713	443.317115	385.621197	-58.918376	132.796366	949.339289	-492.659365	205.418237	904.278630	-487.037977	232.856086	928.634359	-482.631842	247.283865	825.096086	-476.267301	325.041642	719.836529	-446.843508	341.585549	718.550102	-319.355310	27.099801	410.324623	-419.360222	-41.522781	393.790989	-379.808442	122.478723	264.513735	-444.873510	237.642151	631.501442	-463.652355	200.606986	556.509831	-445.076602	128.343349	505.653113	-439.067339	225.335626	539.318454	-420.054592	218.080805	244.599996	-377.165497	-205.383136	950.225398	-264.328854	1.170553	82.195560	-460.973785	-15.469358	81.115546	-62.624883	
755	3.7750	490.846877	1351.037415	-52.423278	535.185182	1343.339290	-329.834947	458.842442	1429.996423	-203.635165	446.669166	1246.563498	-196.683810	531.543564	1106.632471	75.659159	752.015112	963.212048	-41.953636	556.374655	1132.255628	-553.850412	786.257159	959.697457	-428.833714	-109.211909	1193.823238	-294.836691	120.663837	1205.735175	-473.725812	83.333146	1226.312586	-69.013465	154.340271	1138.052771	-448.701995	123.821790	1163.313421	-107.246560	-73.449963	1279.852801	-248.462149	-64.984913	1268.048776	-336.381072	53.296135	1098.876507	-53.987256	28.520247	1058.089060	-482.506011	182.502856	1028.834623	-48.087867	270.868718	1010.436496	-53.038975	336.320487	952.147178	-60.356965	286.794274	1042.859155	-63.893618	432.026746	890.943061	-72.484366	442.184222	864.253228	-197.824042	392.340863	731.334323	-57.201225	387.662102	644.131977	-74.163643	342.601516	569.741026	-72.856885	410.389061	640.384667	-105.868457	289.926570	442.913839	-83.824932	224.527469	418.673219	-129.460503	511.308164	410.955128	-129.537823	445.740952	376.048793	-58.980134	136.094173	950.818838	-492.209396	209.423061	906.896008	-486.306307	236.409368	931.601215	-481.492460	252.464838	828.324444	-475.659579	331.121728	724.575841	-446.527786	345.710757	723.781346	-318.566598	28.015201	421.537621	-418.882206	-40.821405	406.639274	-379.762212	120.282730	273.793063	-444.770829	242.594929	638.021998	-463.164827	204.014950	563.779949	-444.630132	130.833616	514.293695	-438.821262	228.427083	546.057704	-419.653397	215.272215	251.499024	-376.803668	-205.404447	950.181994	-264.400140	1.157778	82.167434	-460.992264	-15.479738	81.099423	-62.606575	
756	3.7800	490.973226	1352.619283	-53.150189	534.374594	1344.984472	-331.599844	458.268267	1431.133432	-205.051313	447.250927	1247.462194	-197.393768	531.856340	1107.704591	74.007768	752.169213	963.198634	-41.994089	555.704783	1132.404344	-553.729734	786.736601	959.260007	-429.383194	-109.892170	1192.164003	-294.899710	120.433853	1204.776502	-473.429312	83.593824	1224.099171	-68.789781	154.358917	1137.242450	-448.248548	124.411361	1160.981213	-106.420493	-73.721625	1277.463196	-248.221734	-65.007403	1266.163940	-336.767231	54.105139	1095.019441	-54.547794	29.704064	1057.200392	-481.825738	182.982599	1022.385038	-48.579354	270.122834	1002.304525	-53.175012	334.331546	942.470656	-61.834980	286.838169	1033.997094	-64.316310	428.277637	878.966672	-73.875297	437.745107	852.688258	-198.265988	388.795989	720.939073	-57.877663	386.129877	633.626265	-74.058078	341.909225	558.480009	-74.303791	408.886467	630.235036	-106.437017	291.063194	431.145025	-84.247073	225.183709	406.279960	-129.102085	512.788467	401.975101	-129.603046	447.677616	366.369893	-59.129141	139.309831	952.502572	-491.694003	213.302207	909.653227	-485.591436	239.904303	934.755077	-480.385829	257.542636	831.660613	-475.114455	337.141853	729.458320	-446.034234	349.989776	728.580749	-318.018736	29.552016	432.698750	-418.212394	-39.445261	419.563455	-379.230650	118.399991	283.165636	-444.879238	247.533446	644.681976	-462.469111	207.633575	571.123198	-444.222588	133.501272	523.016444	-438.419396	231.616259	553.056113	-419.130345	212.902475	258.576769	-377.127654	-205.444222	950.166299	-264.420519	1.156308	82.157160	-460.990132	-15.475480	81.069755	-62.606606	
757	3.7850	491.304938	1354.265604	-53.903172	533.546287	1346.741428	-333.552024	457.681430	1432.456290	-206.423099	448.048405	1248.695078	-198.334380	532.305533	1108.860822	72.250262	752.408272	963.117840	-42.055906	555.303847	1132.403871	-553.335204	787.225812	958.407405	-429.342083	-110.541055	1190.433982	-294.772271	120.277806	1203.483920	-472.902035	83.824296	1222.043282	-68.430727	154.437337	1136.521231	-447.399978	124.884009	1158.658435	-105.389485	-74.366235	1275.458030	-247.954094	-65.462479	1264.266604	-336.592163	54.915751	1091.160782	-54.463036	30.976686	1056.601008	-481.070070	183.294642	1016.396031	-49.062525	269.538822	994.109253	-53.739486	332.191608	932.686432	-63.169784	286.916328	1025.188812	-65.188413	424.521910	867.332296	-75.231949	432.982008	841.943202	-200.012814	385.312947	711.024713	-58.773031	383.942715	623.683761	-74.497405	340.715192	547.867467	-74.547861	406.822292	620.475065	-106.882235	291.730162	419.253260	-84.454588	226.702691	392.587384	-130.373995	513.783474	392.738651	-129.675672	449.061420	356.344655	-59.121462	142.504316	954.302199	-491.104196	217.091707	912.660137	-484.766409	243.258831	938.121843	-479.290767	262.480150	835.261582	-474.593764	343.150950	734.680178	-445.571264	354.417051	733.944016	-317.597580	31.585471	443.913701	-417.409449	-37.434410	432.483968	-378.610286	117.151819	292.666682	-444.915603	252.551927	651.459885	-461.485388	212.294465	579.418038	-444.528508	136.662499	531.716336	-437.854120	235.221395	560.219359	-418.532096	211.092026	265.889798	-377.489878	-205.445501	950.157232	-264.366893	1.167717	82.130406	-460.970768	-15.473525	81.056262	-62.598388	
